M48
;DRILL file {KiCad 4.0.2-stable} date 04/08/2016 18:56:00
;FORMAT={-:-/ absolute / inch / decimal}
FMAT,2
INCH,TZ
T1C0.039
T2C0.040
T3C0.120
%
G90
G05
M72
T1
X5.8294Y-2.81
X6.42Y-2.81
T2
X5.6Y-2.57
X5.6Y-2.67
X5.6Y-2.88
X5.6Y-2.98
X5.6Y-3.08
X5.6Y-3.18
X5.6Y-3.28
X5.6Y-3.48
X5.6Y-3.58
X5.6Y-3.68
X5.6Y-3.78
X6.01Y-2.57
X6.11Y-2.57
X6.13Y-3.5
X6.21Y-2.57
X6.23Y-3.5
X6.57Y-2.57
X6.67Y-2.57
X6.77Y-2.57
X6.85Y-3.12
X6.85Y-3.73
X6.95Y-3.12
X6.95Y-3.73
X7.05Y-3.12
X7.05Y-3.73
X7.15Y-3.12
X7.15Y-3.73
X7.25Y-3.12
X7.25Y-3.73
X7.35Y-3.12
X7.35Y-3.73
X7.36Y-2.57
X7.45Y-3.12
X7.45Y-3.73
X7.46Y-2.57
X7.49Y-3.61
X7.55Y-3.12
X7.55Y-3.73
X7.59Y-3.61
X7.65Y-3.12
X7.65Y-3.73
X7.75Y-3.12
X7.75Y-3.73
X7.85Y-3.12
X7.85Y-3.73
X7.95Y-3.12
X7.95Y-3.73
T3
X8.Y-2.45
X8.Y-3.92
T0
M30
