  0
SECTION
  2
HEADER
  9
$ACADVER
  1
AC1009
  9
$INSBASE
 10
0.0
 20
0.0
 30
0.0
  9
$EXTMIN
 10
-178.5018483279101
 20
-3.8587813812533782
 30
0.0
  9
$EXTMAX
 10
21.27162723943859
 20
377.59908653809248
 30
0.0
  9
$LIMMIN
 10
0.0
 20
0.0
  9
$LIMMAX
 10
12.0
 20
9.0
  9
$ORTHOMODE
 70
     0
  9
$REGENMODE
 70
     1
  9
$FILLMODE
 70
     0
  9
$QTEXTMODE
 70
     0
  9
$MIRRTEXT
 70
     0
  9
$DRAGMODE
 70
     2
  9
$LTSCALE
 40
1.0
  9
$OSMODE
 70
    37
  9
$ATTMODE
 70
     1
  9
$TEXTSIZE
 40
0.2
  9
$TRACEWID
 40
0.05
  9
$TEXTSTYLE
  7
STANDARD
  9
$CLAYER
  8
0
  9
$CELTYPE
  6
CONTINUOUS
  9
$CECOLOR
 62
   256
  9
$DIMSCALE
 40
1.0
  9
$DIMASZ
 40
0.18
  9
$DIMEXO
 40
0.0625
  9
$DIMDLI
 40
0.38
  9
$DIMRND
 40
0.0
  9
$DIMDLE
 40
0.0
  9
$DIMEXE
 40
0.18
  9
$DIMTP
 40
0.0
  9
$DIMTM
 40
0.0
  9
$DIMTXT
 40
0.18
  9
$DIMCEN
 40
0.09
  9
$DIMTSZ
 40
0.0
  9
$DIMTOL
 70
     0
  9
$DIMLIM
 70
     0
  9
$DIMTIH
 70
     1
  9
$DIMTOH
 70
     1
  9
$DIMSE1
 70
     0
  9
$DIMSE2
 70
     0
  9
$DIMTAD
 70
     0
  9
$DIMZIN
 70
     0
  9
$DIMBLK
  1

  9
$DIMASO
 70
     1
  9
$DIMSHO
 70
     1
  9
$DIMPOST
  1

  9
$DIMAPOST
  1

  9
$DIMALT
 70
     0
  9
$DIMALTD
 70
     2
  9
$DIMALTF
 40
25.399999999999999
  9
$DIMLFAC
 40
1.0
  9
$DIMTOFL
 70
     0
  9
$DIMTVP
 40
0.0
  9
$DIMTIX
 70
     0
  9
$DIMSOXD
 70
     0
  9
$DIMSAH
 70
     0
  9
$DIMBLK1
  1

  9
$DIMBLK2
  1

  9
$DIMSTYLE
  2
STANDARD
  9
$DIMCLRD
 70
     0
  9
$DIMCLRE
 70
     0
  9
$DIMCLRT
 70
     0
  9
$DIMTFAC
 40
1.0
  9
$DIMGAP
 40
0.09
  9
$LUNITS
 70
     2
  9
$LUPREC
 70
     4
  9
$SKETCHINC
 40
0.1
  9
$FILLETRAD
 40
0.0
  9
$AUNITS
 70
     0
  9
$AUPREC
 70
     0
  9
$MENU
  1
.
  9
$ELEVATION
 40
0.0
  9
$PELEVATION
 40
0.0
  9
$THICKNESS
 40
0.0
  9
$LIMCHECK
 70
     0
  9
$BLIPMODE
 70
     0
  9
$CHAMFERA
 40
0.0
  9
$CHAMFERB
 40
0.0
  9
$SKPOLY
 70
     0
  9
$TDCREATE
 40
2457604.7369524068
  9
$TDUPDATE
 40
2457605.886526111
  9
$TDINDWG
 40
0.0071866782
  9
$TDUSRTIMER
 40
0.0071866551
  9
$USRTIMER
 70
     1
  9
$ANGBASE
 50
0.0
  9
$ANGDIR
 70
     0
  9
$PDMODE
 70
     0
  9
$PDSIZE
 40
0.0
  9
$PLINEWID
 40
0.0
  9
$COORDS
 70
     1
  9
$SPLFRAME
 70
     1
  9
$SPLINETYPE
 70
     6
  9
$SPLINESEGS
 70
     8
  9
$ATTDIA
 70
     1
  9
$ATTREQ
 70
     1
  9
$HANDLING
 70
     1
  9
$HANDSEED
  5
53C
  9
$SURFTAB1
 70
     6
  9
$SURFTAB2
 70
     6
  9
$SURFTYPE
 70
     6
  9
$SURFU
 70
     6
  9
$SURFV
 70
     6
  9
$UCSNAME
  2

  9
$UCSORG
 10
0.0
 20
0.0
 30
0.0
  9
$UCSXDIR
 10
1.0
 20
0.0
 30
0.0
  9
$UCSYDIR
 10
0.0
 20
1.0
 30
0.0
  9
$PUCSNAME
  2

  9
$PUCSORG
 10
0.0
 20
0.0
 30
0.0
  9
$PUCSXDIR
 10
1.0
 20
0.0
 30
0.0
  9
$PUCSYDIR
 10
0.0
 20
1.0
 30
0.0
  9
$USERI1
 70
     0
  9
$USERI2
 70
     0
  9
$USERI3
 70
     0
  9
$USERI4
 70
     0
  9
$USERI5
 70
     0
  9
$USERR1
 40
0.0
  9
$USERR2
 40
0.0
  9
$USERR3
 40
0.0
  9
$USERR4
 40
0.0
  9
$USERR5
 40
0.0
  9
$WORLDVIEW
 70
     1
  9
$SHADEDGE
 70
     3
  9
$SHADEDIF
 70
    70
  9
$TILEMODE
 70
     1
  9
$MAXACTVP
 70
    64
  9
$PLIMCHECK
 70
     0
  9
$PEXTMIN
 10
1.0000000000000000E+020
 20
1.0000000000000000E+020
 30
1.0000000000000000E+020
  9
$PEXTMAX
 10
-1.0000000000000000E+020
 20
-1.0000000000000000E+020
 30
-1.0000000000000000E+020
  9
$PLIMMIN
 10
0.0
 20
0.0
  9
$PLIMMAX
 10
12.0
 20
9.0
  9
$UNITMODE
 70
     0
  9
$VISRETAIN
 70
     1
  9
$PLINEGEN
 70
     0
  9
$PSLTSCALE
 70
     1
  0
ENDSEC
  0
SECTION
  2
TABLES
  0
TABLE
  2
VPORT
 70
     1
  0
VPORT
  2
*ACTIVE
 70
     0
 10
0.0
 20
0.0
 11
1.0
 21
1.0
 12
8.025947064547978
 22
18.034568381332061
 13
0.0
 23
0.0
 14
1.0
 24
1.0
 15
0.0
 25
0.0
 16
0.0
 26
0.0
 36
1.0
 17
0.0
 27
0.0
 37
0.0
 40
24.395527343329309
 41
2.4060283687943258
 42
50.0
 43
0.0
 44
0.0
 50
0.0
 51
0.0
 71
     0
 72
   100
 73
     1
 74
     1
 75
     0
 76
     0
 77
     0
 78
     0
  0
ENDTAB
  0
TABLE
  2
LTYPE
 70
     2
  0
LTYPE
  2
CONTINUOUS
 70
     0
  3
Solid line
 72
    65
 73
     0
 40
0.0
  0
ENDTAB
  0
TABLE
  2
LAYER
 70
     1
  0
LAYER
  2
0
 70
     0
 62
     7
  6
CONTINUOUS
  0
ENDTAB
  0
TABLE
  2
STYLE
 70
     2
  0
STYLE
  2
STANDARD
 70
     0
 40
0.0
 41
1.0
 50
0.0
 71
     0
 42
0.2
  3
txt
  4

  0
STYLE
  2
ANNOTATIVE
 70
     0
 40
0.0
 41
1.0
 50
0.0
 71
     0
 42
0.2
  3
txt
  4

  0
ENDTAB
  0
TABLE
  2
VIEW
 70
     0
  0
ENDTAB
  0
TABLE
  2
UCS
 70
     0
  0
ENDTAB
  0
TABLE
  2
APPID
 70
     5
  0
APPID
  2
ACAD
 70
     0
  0
APPID
  2
ACADANNOTATIVE
 70
     0
  0
APPID
  2
ACAD_NAV_VCDISPLAY
 70
     0
  0
APPID
  2
ACAD_EXEMPT_FROM_CAD_STANDARDS
 70
     0
  0
APPID
  2
ACAD_MLEADERVER
 70
     0
  0
ENDTAB
  0
TABLE
  2
DIMSTYLE
 70
     3
  0
DIMSTYLE
  2
STANDARD
 70
     0
  3

  4

  5

  6

  7

 40
1.0
 41
0.18
 42
0.0625
 43
0.38
 44
0.18
 45
0.0
 46
0.0
 47
0.0
 48
0.0
140
0.18
141
0.09
142
0.0
143
25.399999999999999
144
1.0
145
0.0
146
1.0
147
0.09
 71
     0
 72
     0
 73
     1
 74
     1
 75
     0
 76
     0
 77
     0
 78
     0
170
     0
171
     2
172
     0
173
     0
174
     0
175
     0
176
     0
177
     0
178
     0
  0
DIMSTYLE
  2
ANNOTATIVE
 70
     0
  3

  4

  5

  6

  7

 40
1.0
 41
0.18
 42
0.0625
 43
0.38
 44
0.18
 45
0.0
 46
0.0
 47
0.0
 48
0.0
140
0.18
141
0.09
142
0.0
143
25.399999999999999
144
1.0
145
0.0
146
1.0
147
0.09
 71
     0
 72
     0
 73
     1
 74
     1
 75
     0
 76
     0
 77
     0
 78
     0
170
     0
171
     2
172
     0
173
     0
174
     0
175
     0
176
     0
177
     0
178
     0
  0
ENDTAB
  0
ENDSEC
  0
SECTION
  2
BLOCKS
  0
BLOCK
  8
0
  2
$MODEL_SPACE
 70
     0
 10
0.0
 20
0.0
 30
0.0
  3
$MODEL_SPACE
  1

  0
ENDBLK
  5
71
  8
0
  0
BLOCK
 67
     1
  8
0
  2
$PAPER_SPACE
 70
     0
 10
0.0
 20
0.0
 30
0.0
  3
$PAPER_SPACE
  1

  0
ENDBLK
  5
6D
 67
     1
  8
0
  0
ENDSEC
  0
SECTION
  2
ENTITIES
  0
LINE
  5
281
  8
0
 62
     0
 10
6.4250579786497042
 20
7.263456973402497
 30
0.0
 11
6.5107232032281948
 21
21.014467892347628
 31
0.0
  0
LINE
  5
285
  8
0
 62
     0
 10
6.5963877948225891
 20
34.765377204464443
 30
0.0
 11
6.6586924233588141
 21
44.76653731952495
 31
0.0
  0
LINE
  5
289
  8
0
 62
     0
 10
6.7209891395933417
 20
54.766427349231009
 30
0.0
 11
6.7832921856692394
 21
64.767333447220636
 31
0.0
  0
LINE
  5
28D
  8
0
 62
     0
 10
6.8455968142054644
 20
74.768493562281179
 30
0.0
 11
6.9078935304399627
 21
84.768383591987217
 31
0.0
  0
LINE
  5
291
  8
0
 62
     0
 10
6.9701965765158604
 20
94.769289689976887
 30
0.0
 11
7.0325012050520854
 21
104.7704498050374
 31
0.0
  0
LINE
  5
295
  8
0
 62
     0
 10
7.0947963388262556
 20
114.77008581767249
 30
0.0
 11
7.1570993849021241
 21
124.77099191566209
 31
0.0
  0
LINE
  5
299
  8
0
 62
     0
 10
7.219404013438349
 20
134.77215203072271
 30
0.0
 11
7.2817102244349314
 21
144.773566162854
 31
0.0
  0
LINE
  5
29D
  8
0
 62
     0
 10
7.3440037757487451
 20
154.77294815841839
 30
0.0
 11
7.4063084042849701
 21
164.7741082734789
 31
0.0
  0
LINE
  5
2A1
  8
0
 62
     0
 10
7.4919748948317704
 20
178.52532240608079
 30
0.0
 11
7.5776382204578558
 21
192.2760285045409
 31
0.0
  0
LINE
  5
2A2
  8
0
 62
     0
 10
7.5776382204578558
 20
192.2760285045409
 30
0.0
 11
-2.4235218946026
 21
192.33833313307699
 31
0.0
  0
LINE
  5
2A3
  8
0
 62
     0
 10
-2.4235218946026
 20
192.33833313307699
 30
0.0
 11
-2.4609027727719019
 21
186.3379418845258
 31
0.0
  0
LINE
  5
2A4
  8
0
 62
     0
 10
-2.4609027727719019
 20
186.3379418845258
 30
0.0
 11
-12.46028476833621
 21
186.4002354358397
 31
0.0
  0
LINE
  5
2A5
  8
0
 62
     0
 10
-12.46028476833621
 20
186.4002354358397
 30
0.0
 11
-12.42290389016688
 21
192.4006266843908
 31
0.0
  0
LINE
  5
2A6
  8
0
 62
     0
 10
-12.42290389016688
 20
192.4006266843908
 30
0.0
 11
-22.424064005227422
 21
192.46293131292711
 31
0.0
  0
LINE
  5
2A7
  8
0
 62
     0
 10
-22.424064005227422
 20
192.46293131292711
 30
0.0
 11
-22.461444883396702
 21
186.4625400643759
 31
0.0
  0
LINE
  5
2A8
  8
0
 62
     0
 10
-22.461444883396702
 20
186.4625400643759
 30
0.0
 11
-32.462859015528153
 21
186.52484627537251
 31
0.0
  0
LINE
  5
2A9
  8
0
 62
     0
 10
-32.462859015528153
 20
186.52484627537251
 30
0.0
 11
-32.425478137358851
 21
192.52523752392369
 31
0.0
  0
LINE
  5
2AA
  8
0
 62
     0
 10
-32.425478137358851
 20
192.52523752392369
 30
0.0
 11
-42.424860132923087
 21
192.58753107523751
 31
0.0
  0
LINE
  5
2AB
  8
0
 62
     0
 10
-42.424860132923087
 20
192.58753107523751
 30
0.0
 11
-42.510523458549201
 21
178.83682497677751
 31
0.0
  0
LINE
  5
2AC
  8
0
 62
     0
 10
-42.510523458549201
 20
178.83682497677751
 30
0.0
 11
-36.510132209997991
 21
178.79944409860809
 31
0.0
  0
LINE
  5
2AD
  8
0
 62
     0
 10
-36.510132209997991
 20
178.79944409860809
 30
0.0
 11
-36.595798700544783
 21
165.04822996600629
 31
0.0
  0
LINE
  5
2AE
  8
0
 62
     0
 10
-36.595798700544783
 20
165.04822996600629
 30
0.0
 11
-42.596189949095979
 21
165.08561084417559
 31
0.0
  0
LINE
  5
2AF
  8
0
 62
     0
 10
-42.596189949095979
 20
165.08561084417559
 30
0.0
 11
-42.658494577632212
 21
155.0844507291151
 31
0.0
  0
LINE
  5
2B0
  8
0
 62
     0
 10
-42.658494577632212
 20
155.0844507291151
 30
0.0
 11
-36.658103329081001
 21
155.04706985094569
 31
0.0
  0
LINE
  5
2B1
  8
0
 62
     0
 10
-36.658103329081001
 20
155.04706985094569
 30
0.0
 11
-36.720396880394851
 21
145.04768785538141
 31
0.0
  0
LINE
  5
2B2
  8
0
 62
     0
 10
-36.720396880394851
 20
145.04768785538141
 30
0.0
 11
-42.72078812894604
 21
145.08506873355071
 31
0.0
  0
LINE
  5
2B3
  8
0
 62
     0
 10
-42.72078812894604
 20
145.08506873355071
 30
0.0
 11
-42.783094339942622
 21
135.08365460141931
 31
0.0
  0
LINE
  5
2B4
  8
0
 62
     0
 10
-42.783094339942622
 20
135.08365460141931
 30
0.0
 11
-36.782703091391397
 21
135.04627372325001
 31
0.0
  0
LINE
  5
2B5
  8
0
 62
     0
 10
-36.782703091391397
 20
135.04627372325001
 30
0.0
 11
-36.845007719927622
 21
125.0451136081895
 31
0.0
  0
LINE
  5
2B6
  8
0
 62
     0
 10
-36.845007719927622
 20
125.0451136081895
 30
0.0
 11
-42.845398968478833
 21
125.0824944863588
 31
0.0
  0
LINE
  5
2B7
  8
0
 62
     0
 10
-42.845398968478833
 20
125.0824944863588
 30
0.0
 11
-42.907702014554722
 21
115.0815883883692
 31
0.0
  0
LINE
  5
2B8
  8
0
 62
     0
 10
-42.907702014554722
 20
115.0815883883692
 30
0.0
 11
-36.907310766003519
 21
115.0442075101999
 31
0.0
  0
LINE
  5
2B9
  8
0
 62
     0
 10
-36.907310766003519
 20
115.0442075101999
 30
0.0
 11
-36.96960589977769
 21
105.0445714975647
 31
0.0
  0
LINE
  5
2BA
  8
0
 62
     0
 10
-36.96960589977769
 20
105.0445714975647
 30
0.0
 11
-42.969997148328879
 21
105.08195237573401
 31
0.0
  0
LINE
  5
2BB
  8
0
 62
     0
 10
-42.969997148328879
 20
105.08195237573401
 30
0.0
 11
-43.032301776865118
 21
95.080792260673576
 31
0.0
  0
LINE
  5
2BC
  8
0
 62
     0
 10
-43.032301776865118
 20
95.080792260673576
 30
0.0
 11
-37.031910528313922
 21
95.043411382504274
 31
0.0
  0
LINE
  5
2BD
  8
0
 62
     0
 10
-37.031910528313922
 20
95.043411382504274
 30
0.0
 11
-37.094213574389812
 21
85.04250528451459
 31
0.0
  0
LINE
  5
2BE
  8
0
 62
     0
 10
-37.094213574389812
 20
85.04250528451459
 30
0.0
 11
-43.094604822940987
 21
85.079886162683906
 31
0.0
  0
LINE
  5
2BF
  8
0
 62
     0
 10
-43.094604822940987
 20
85.079886162683906
 30
0.0
 11
-43.156901539175529
 21
75.079996132977868
 31
0.0
  0
LINE
  5
2C0
  8
0
 62
     0
 10
-43.156901539175529
 20
75.079996132977868
 30
0.0
 11
-37.156510290624311
 21
75.042615254808538
 31
0.0
  0
LINE
  5
2C1
  8
0
 62
     0
 10
-37.156510290624311
 20
75.042615254808538
 30
0.0
 11
-37.218814919160543
 21
65.041455139748024
 31
0.0
  0
LINE
  5
2C2
  8
0
 62
     0
 10
-37.218814919160543
 20
65.041455139748024
 30
0.0
 11
-43.219206167711732
 21
65.078836017917325
 31
0.0
  0
LINE
  5
2C3
  8
0
 62
     0
 10
-43.219206167711732
 20
65.078836017917325
 30
0.0
 11
-43.281509213787629
 21
55.077929919927691
 31
0.0
  0
LINE
  5
2C4
  8
0
 62
     0
 10
-43.281509213787629
 20
55.077929919927691
 30
0.0
 11
-37.281117965236398
 21
55.040549041758389
 31
0.0
  0
LINE
  5
2C5
  8
0
 62
     0
 10
-37.281117965236398
 20
55.040549041758389
 30
0.0
 11
-37.343414681470946
 21
45.040659012052338
 31
0.0
  0
LINE
  5
2C6
  8
0
 62
     0
 10
-37.343414681470946
 20
45.040659012052338
 30
0.0
 11
-43.343805930022128
 21
45.078039890221639
 31
0.0
  0
LINE
  5
2C7
  8
0
 62
     0
 10
-43.343805930022128
 20
45.078039890221639
 30
0.0
 11
-43.406110558558382
 21
35.076879775161132
 31
0.0
  0
LINE
  5
2C8
  8
0
 62
     0
 10
-43.406110558558382
 20
35.076879775161132
 30
0.0
 11
-37.405719310007171
 21
35.039498896991802
 31
0.0
  0
LINE
  5
2C9
  8
0
 62
     0
 10
-37.405719310007171
 20
35.039498896991802
 30
0.0
 11
-37.491383901601573
 21
21.288589584875009
 31
0.0
  0
LINE
  5
2CA
  8
0
 62
     0
 10
-37.491383901601573
 20
21.288589584875009
 30
0.0
 11
-43.491775150152741
 21
21.32597046304431
 31
0.0
  0
LINE
  5
2CB
  8
0
 62
     0
 10
-43.491775150152741
 20
21.32597046304431
 30
0.0
 11
-43.577440374731289
 21
7.5749595440991584
 31
0.0
  0
LINE
  5
2CC
  8
0
 62
     0
 10
-43.577440374731289
 20
7.5749595440991584
 30
0.0
 11
-33.578058379167018
 21
7.5126659927853154
 31
0.0
  0
LINE
  5
2CD
  8
0
 62
     0
 10
-33.578058379167018
 20
7.5126659927853154
 30
0.0
 11
-33.540677659243762
 21
13.513031839629489
 31
0.0
  0
LINE
  5
2CE
  8
0
 62
     0
 10
-33.540677659243762
 20
13.513031839629489
 30
0.0
 11
-23.539263527112301
 21
13.45072562863291
 31
0.0
  0
LINE
  5
2CF
  8
0
 62
     0
 10
-23.539263527112301
 20
13.45072562863291
 30
0.0
 11
-23.576644247035599
 21
7.4503597817887623
 31
0.0
  0
LINE
  5
2D0
  8
0
 62
     0
 10
-23.576644247035599
 20
7.4503597817887623
 30
0.0
 11
-13.57548413197509
 21
7.3880551532525649
 31
0.0
  0
LINE
  5
2D1
  8
0
 62
     0
 10
-13.57548413197509
 20
7.3880551532525649
 30
0.0
 11
-13.538103412051781
 21
13.388421000096709
 31
0.0
  0
LINE
  5
2D2
  8
0
 62
     0
 10
-13.538103412051781
 20
13.388421000096709
 30
0.0
 11
-3.5387214164875038
 21
13.32612744878287
 31
0.0
  0
LINE
  5
2D3
  8
0
 62
     0
 10
-3.5387214164875038
 20
13.32612744878287
 30
0.0
 11
-3.576102136410781
 21
7.3257616019387219
 31
0.0
  0
LINE
  5
2D4
  8
0
 62
     0
 10
-3.576102136410781
 20
7.3257616019387219
 30
0.0
 11
6.4250579786497042
 21
7.263456973402497
 31
0.0
  0
LINE
  5
2D5
  8
0
 62
     0
 10
6.4250579786497042
 20
7.263456973402497
 30
0.0
 11
6.4250579786497042
 21
7.263456973402497
 31
0.0
  0
LINE
  5
2D8
  8
0
 62
     0
 10
7.5776382204578558
 20
192.2760285045409
 30
0.0
 11
7.6633047110046562
 21
206.02724263714271
 31
0.0
  0
LINE
  5
2DC
  8
0
 62
     0
 10
7.7489680366307994
 20
219.77794873560291
 30
0.0
 11
7.8112647528652976
 21
229.7778387653089
 31
0.0
  0
LINE
  5
2E0
  8
0
 62
     0
 10
7.8735693814015226
 20
239.77899888036939
 30
0.0
 11
7.9358724274774204
 21
249.7799049783591
 31
0.0
  0
LINE
  5
2E4
  8
0
 62
     0
 10
7.9981691437119187
 20
259.77979500806521
 30
0.0
 11
8.0604674424068037
 21
269.77993905484198
 31
0.0
  0
LINE
  5
2E8
  8
0
 62
     0
 10
8.1227689060223156
 20
279.78059113576091
 30
0.0
 11
8.1850861942412507
 21
289.78378338738838
 31
0.0
  0
LINE
  5
2EC
  8
0
 62
     0
 10
8.2473718332534247
 20
299.78189529759823
 30
0.0
 11
8.3096732968689366
 21
309.78254737851699
 31
0.0
  0
LINE
  5
2F0
  8
0
 62
     0
 10
8.3719905850879002
 20
319.78573963014469
 30
0.0
 11
8.4342762241000457
 21
329.78385154035448
 31
0.0
  0
LINE
  5
2F4
  8
0
 62
     0
 10
8.4965935123189809
 20
339.78704379198211
 30
0.0
 11
8.5588949759345212
 21
349.78769587290088
 31
0.0
  0
LINE
  5
2F8
  8
0
 62
     0
 10
8.6445535541796232
 20
363.53763992014831
 30
0.0
 11
8.7302121324246968
 21
377.28758396739579
 31
0.0
  0
LINE
  5
2F9
  8
0
 62
     0
 10
8.7302121324246968
 20
377.28758396739579
 30
0.0
 11
-1.2709479826357599
 21
377.3498885959321
 31
0.0
  0
LINE
  5
2FA
  8
0
 62
     0
 10
-1.2709479826357599
 20
377.3498885959321
 30
0.0
 11
-1.3083256958844061
 21
371.35000538152241
 31
0.0
  0
LINE
  5
2FB
  8
0
 62
     0
 10
-1.3083256958844061
 20
371.35000538152241
 30
0.0
 11
-11.30770769144871
 21
371.41229893283639
 31
0.0
  0
LINE
  5
2FC
  8
0
 62
     0
 10
-11.30770769144871
 20
371.41229893283639
 30
0.0
 11
-11.27032997820006
 21
377.41218214724591
 31
0.0
  0
LINE
  5
2FD
  8
0
 62
     0
 10
-11.27032997820006
 20
377.41218214724591
 30
0.0
 11
-21.27149009326055
 21
377.47448677578211
 31
0.0
  0
LINE
  5
2FE
  8
0
 62
     0
 10
-21.27149009326055
 20
377.47448677578211
 30
0.0
 11
-21.308867806509198
 21
371.47460356137248
 31
0.0
  0
LINE
  5
2FF
  8
0
 62
     0
 10
-21.308867806509198
 20
371.47460356137248
 30
0.0
 11
-31.31028193864066
 21
371.5369097723692
 31
0.0
  0
LINE
  5
300
  8
0
 62
     0
 10
-31.31028193864066
 20
371.5369097723692
 30
0.0
 11
-31.272904225392011
 21
377.53679298677872
 31
0.0
  0
LINE
  5
301
  8
0
 62
     0
 10
-31.272904225392011
 20
377.53679298677872
 30
0.0
 11
-41.272286220956261
 21
377.59908653809248
 31
0.0
  0
LINE
  5
302
  8
0
 62
     0
 10
-41.272286220956261
 20
377.59908653809248
 30
0.0
 11
-41.357944799201348
 21
363.849142490845
 31
0.0
  0
LINE
  5
303
  8
0
 62
     0
 10
-41.357944799201348
 20
363.849142490845
 30
0.0
 11
-35.357553550650138
 21
363.8117616126757
 31
0.0
  0
LINE
  5
304
  8
0
 62
     0
 10
-35.357553550650138
 20
363.8117616126757
 30
0.0
 11
-35.443212128895233
 21
350.06181756542833
 31
0.0
  0
LINE
  5
305
  8
0
 62
     0
 10
-35.443212128895233
 20
350.06181756542833
 30
0.0
 11
-41.443603377446451
 21
350.09919844359757
 31
0.0
  0
LINE
  5
306
  8
0
 62
     0
 10
-41.443603377446451
 20
350.09919844359757
 30
0.0
 11
-41.505904841061977
 21
340.0985463626788
 31
0.0
  0
LINE
  5
307
  8
0
 62
     0
 10
-41.505904841061977
 20
340.0985463626788
 30
0.0
 11
-35.505513592510802
 21
340.0611654845095
 31
0.0
  0
LINE
  5
308
  8
0
 62
     0
 10
-35.505513592510802
 20
340.0611654845095
 30
0.0
 11
-35.56783088072973
 21
330.05797323288192
 31
0.0
  0
LINE
  5
309
  8
0
 62
     0
 10
-35.56783088072973
 20
330.05797323288192
 30
0.0
 11
-41.568222129280933
 21
330.09535411105128
 31
0.0
  0
LINE
  5
30A
  8
0
 62
     0
 10
-41.568222129280933
 20
330.09535411105128
 30
0.0
 11
-41.630507768293072
 21
320.09724220084138
 31
0.0
  0
LINE
  5
30B
  8
0
 62
     0
 10
-41.630507768293072
 20
320.09724220084138
 30
0.0
 11
-35.630116519741861
 21
320.05986132267208
 31
0.0
  0
LINE
  5
30C
  8
0
 62
     0
 10
-35.630116519741861
 20
320.05986132267208
 30
0.0
 11
-35.692433807960832
 21
310.05666907104438
 31
0.0
  0
LINE
  5
30D
  8
0
 62
     0
 10
-35.692433807960832
 20
310.05666907104438
 30
0.0
 11
-41.692825056512
 21
310.09404994921368
 31
0.0
  0
LINE
  5
30E
  8
0
 62
     0
 10
-41.692825056512
 20
310.09404994921368
 30
0.0
 11
-41.755126520127561
 21
300.09339786829491
 31
0.0
  0
LINE
  5
30F
  8
0
 62
     0
 10
-41.755126520127561
 20
300.09339786829491
 30
0.0
 11
-35.754735271576351
 21
300.05601699012561
 31
0.0
  0
LINE
  5
310
  8
0
 62
     0
 10
-35.754735271576351
 20
300.05601699012561
 30
0.0
 11
-35.817020910588482
 21
290.05790507991583
 31
0.0
  0
LINE
  5
311
  8
0
 62
     0
 10
-35.817020910588482
 20
290.05790507991583
 30
0.0
 11
-41.817412159139693
 21
290.09528595808513
 31
0.0
  0
LINE
  5
312
  8
0
 62
     0
 10
-41.817412159139693
 20
290.09528595808513
 30
0.0
 11
-41.879729447358642
 21
280.0920937064576
 31
0.0
  0
LINE
  5
313
  8
0
 62
     0
 10
-41.879729447358642
 20
280.0920937064576
 30
0.0
 11
-35.879338198807453
 21
280.0547128282883
 31
0.0
  0
LINE
  5
314
  8
0
 62
     0
 10
-35.879338198807453
 20
280.0547128282883
 30
0.0
 11
-35.941639662422972
 21
270.05406074736942
 31
0.0
  0
LINE
  5
315
  8
0
 62
     0
 10
-35.941639662422972
 20
270.05406074736942
 30
0.0
 11
-41.942030910974204
 21
270.09144162553872
 31
0.0
  0
LINE
  5
316
  8
0
 62
     0
 10
-41.942030910974204
 20
270.09144162553872
 30
0.0
 11
-42.004329209669031
 21
260.0912975787619
 31
0.0
  0
LINE
  5
317
  8
0
 62
     0
 10
-42.004329209669031
 20
260.0912975787619
 30
0.0
 11
-36.003937961117842
 21
260.05391670059259
 31
0.0
  0
LINE
  5
318
  8
0
 62
     0
 10
-36.003937961117842
 20
260.05391670059259
 30
0.0
 11
-36.066234677352362
 21
250.05402667088649
 31
0.0
  0
LINE
  5
319
  8
0
 62
     0
 10
-36.066234677352362
 20
250.05402667088649
 30
0.0
 11
-42.066625925903558
 21
250.09140754905579
 31
0.0
  0
LINE
  5
31A
  8
0
 62
     0
 10
-42.066625925903558
 20
250.09140754905579
 30
0.0
 11
-42.128928971979427
 21
240.0905014510661
 31
0.0
  0
LINE
  5
31B
  8
0
 62
     0
 10
-42.128928971979427
 20
240.0905014510661
 30
0.0
 11
-36.128537723428259
 21
240.0531205728968
 31
0.0
  0
LINE
  5
31C
  8
0
 62
     0
 10
-36.128537723428259
 20
240.0531205728968
 30
0.0
 11
-36.190842351964463
 21
230.05196045783629
 31
0.0
  0
LINE
  5
31D
  8
0
 62
     0
 10
-36.190842351964463
 20
230.05196045783629
 30
0.0
 11
-42.191233600515659
 21
230.08934133600559
 31
0.0
  0
LINE
  5
31E
  8
0
 62
     0
 10
-42.191233600515659
 20
230.08934133600559
 30
0.0
 11
-42.253530316750201
 21
220.08945130629951
 31
0.0
  0
LINE
  5
31F
  8
0
 62
     0
 10
-42.253530316750201
 20
220.08945130629951
 30
0.0
 11
-36.253139068198983
 21
220.05207042813021
 31
0.0
  0
LINE
  5
320
  8
0
 62
     0
 10
-36.253139068198983
 20
220.05207042813021
 30
0.0
 11
-36.338802393825112
 21
206.30136432967009
 31
0.0
  0
LINE
  5
321
  8
0
 62
     0
 10
-36.338802393825112
 20
206.30136432967009
 30
0.0
 11
-42.33919364237628
 21
206.33874520783939
 31
0.0
  0
LINE
  5
322
  8
0
 62
     0
 10
-42.33919364237628
 20
206.33874520783939
 30
0.0
 11
-42.424860132923087
 21
192.58753107523751
 31
0.0
  0
LINE
  5
323
  8
0
 62
     0
 10
-42.424860132923087
 20
192.58753107523751
 30
0.0
 11
-32.425478137358851
 21
192.52523752392369
 31
0.0
  0
LINE
  5
324
  8
0
 62
     0
 10
-32.425478137358851
 20
192.52523752392369
 30
0.0
 11
-32.388097259189522
 21
198.52562877247499
 31
0.0
  0
LINE
  5
325
  8
0
 62
     0
 10
-32.388097259189522
 20
198.52562877247499
 30
0.0
 11
-22.386683127058092
 21
198.46332256147841
 31
0.0
  0
LINE
  5
326
  8
0
 62
     0
 10
-22.386683127058092
 20
198.46332256147841
 30
0.0
 11
-22.424064005227422
 21
192.46293131292711
 31
0.0
  0
LINE
  5
327
  8
0
 62
     0
 10
-22.424064005227422
 20
192.46293131292711
 30
0.0
 11
-12.42290389016688
 21
192.4006266843908
 31
0.0
  0
LINE
  5
328
  8
0
 62
     0
 10
-12.42290389016688
 20
192.4006266843908
 30
0.0
 11
-12.385523011997551
 21
198.4010179329421
 31
0.0
  0
LINE
  5
329
  8
0
 62
     0
 10
-12.385523011997551
 20
198.4010179329421
 30
0.0
 11
-2.386141016433299
 21
198.33872438162831
 31
0.0
  0
LINE
  5
32A
  8
0
 62
     0
 10
-2.386141016433299
 20
198.33872438162831
 30
0.0
 11
-2.4235218946026
 21
192.33833313307699
 31
0.0
  0
LINE
  5
32B
  8
0
 62
     0
 10
-2.4235218946026
 20
192.33833313307699
 30
0.0
 11
7.5776382204578558
 21
192.2760285045409
 31
0.0
  0
LINE
  5
32C
  8
0
 62
     0
 10
7.5776382204578558
 20
192.2760285045409
 30
0.0
 11
7.5776382204578558
 21
192.2760285045409
 31
0.0
  0
LINE
  5
333
  8
0
 62
     0
 10
-49.540450903359229
 20
13.61270626911263
 30
0.0
 11
-49.492166398703993
 21
21.363351341213608
 31
0.0
  0
LINE
  5
334
  8
0
 62
     0
 10
-49.492166398703993
 20
21.363351341213608
 30
0.0
 11
-43.491775150152741
 21
21.32597046304431
 31
0.0
  0
LINE
  5
335
  8
0
 62
     0
 10
-43.491775150152741
 20
21.32597046304431
 30
0.0
 11
-43.406110558558382
 21
35.076879775161132
 31
0.0
  0
LINE
  5
336
  8
0
 62
     0
 10
-43.406110558558382
 20
35.076879775161132
 30
0.0
 11
-49.406501807109592
 21
35.11426065333044
 31
0.0
  0
LINE
  5
337
  8
0
 62
     0
 10
-49.406501807109592
 20
35.11426065333044
 30
0.0
 11
-49.344197178573388
 21
45.115420768390941
 31
0.0
  0
LINE
  5
338
  8
0
 62
     0
 10
-49.344197178573388
 20
45.115420768390941
 30
0.0
 11
-43.343805930022128
 21
45.078039890221639
 31
0.0
  0
LINE
  5
339
  8
0
 62
     0
 10
-43.343805930022128
 20
45.078039890221639
 30
0.0
 11
-43.281509213787629
 21
55.077929919927691
 31
0.0
  0
LINE
  5
33A
  8
0
 62
     0
 10
-43.281509213787629
 20
55.077929919927691
 30
0.0
 11
-49.281900462338882
 21
55.115310798097028
 31
0.0
  0
LINE
  5
33B
  8
0
 62
     0
 10
-49.281900462338882
 20
55.115310798097028
 30
0.0
 11
-49.219597416262999
 21
65.116216896086655
 31
0.0
  0
LINE
  5
33C
  8
0
 62
     0
 10
-49.219597416262999
 20
65.116216896086655
 30
0.0
 11
-43.219206167711732
 21
65.078836017917325
 31
0.0
  0
LINE
  5
33D
  8
0
 62
     0
 10
-43.219206167711732
 20
65.078836017917325
 30
0.0
 11
-43.156901539175529
 21
75.079996132977868
 31
0.0
  0
LINE
  5
33E
  8
0
 62
     0
 10
-43.156901539175529
 20
75.079996132977868
 30
0.0
 11
-49.157292787726739
 21
75.11737701114717
 31
0.0
  0
LINE
  5
33F
  8
0
 62
     0
 10
-49.157292787726739
 20
75.11737701114717
 30
0.0
 11
-49.094996071492233
 21
85.117267040853235
 31
0.0
  0
LINE
  5
340
  8
0
 62
     0
 10
-49.094996071492233
 20
85.117267040853235
 30
0.0
 11
-43.094604822940987
 21
85.079886162683906
 31
0.0
  0
LINE
  5
341
  8
0
 62
     0
 10
-43.094604822940987
 20
85.079886162683906
 30
0.0
 11
-43.032301776865118
 21
95.080792260673576
 31
0.0
  0
LINE
  5
342
  8
0
 62
     0
 10
-43.032301776865118
 20
95.080792260673576
 30
0.0
 11
-49.03269302541635
 21
95.118173138842877
 31
0.0
  0
LINE
  5
343
  8
0
 62
     0
 10
-49.03269302541635
 20
95.118173138842877
 30
0.0
 11
-48.970388396880139
 21
105.11933325390331
 31
0.0
  0
LINE
  5
344
  8
0
 62
     0
 10
-48.970388396880139
 20
105.11933325390331
 30
0.0
 11
-42.969997148328879
 21
105.08195237573401
 31
0.0
  0
LINE
  5
345
  8
0
 62
     0
 10
-42.969997148328879
 20
105.08195237573401
 30
0.0
 11
-42.907702014554722
 21
115.0815883883692
 31
0.0
  0
LINE
  5
346
  8
0
 62
     0
 10
-42.907702014554722
 20
115.0815883883692
 30
0.0
 11
-48.90809326310594
 21
115.1189692665385
 31
0.0
  0
LINE
  5
347
  8
0
 62
     0
 10
-48.90809326310594
 20
115.1189692665385
 30
0.0
 11
-48.845790217030071
 21
125.1198753645281
 31
0.0
  0
LINE
  5
348
  8
0
 62
     0
 10
-48.845790217030071
 20
125.1198753645281
 30
0.0
 11
-42.845398968478833
 21
125.0824944863588
 31
0.0
  0
LINE
  5
349
  8
0
 62
     0
 10
-42.845398968478833
 20
125.0824944863588
 30
0.0
 11
-42.783094339942622
 21
135.08365460141931
 31
0.0
  0
LINE
  5
34A
  8
0
 62
     0
 10
-42.783094339942622
 20
135.08365460141931
 30
0.0
 11
-48.783485588493853
 21
135.12103547958861
 31
0.0
  0
LINE
  5
34B
  8
0
 62
     0
 10
-48.783485588493853
 20
135.12103547958861
 30
0.0
 11
-48.721179377497293
 21
145.1224496117201
 31
0.0
  0
LINE
  5
34C
  8
0
 62
     0
 10
-48.721179377497293
 20
145.1224496117201
 30
0.0
 11
-42.72078812894604
 21
145.08506873355071
 31
0.0
  0
LINE
  5
34D
  8
0
 62
     0
 10
-42.72078812894604
 20
145.08506873355071
 30
0.0
 11
-42.658494577632212
 21
155.0844507291151
 31
0.0
  0
LINE
  5
34E
  8
0
 62
     0
 10
-42.658494577632212
 20
155.0844507291151
 30
0.0
 11
-48.65888582618345
 21
155.12183160728441
 31
0.0
  0
LINE
  5
34F
  8
0
 62
     0
 10
-48.65888582618345
 20
155.12183160728441
 30
0.0
 11
-48.596581197647232
 21
165.12299172234489
 31
0.0
  0
LINE
  5
350
  8
0
 62
     0
 10
-48.596581197647232
 20
165.12299172234489
 30
0.0
 11
-42.596189949095979
 21
165.08561084417559
 31
0.0
  0
LINE
  5
351
  8
0
 62
     0
 10
-42.596189949095979
 20
165.08561084417559
 30
0.0
 11
-42.510523458549201
 21
178.83682497677751
 31
0.0
  0
LINE
  5
352
  8
0
 62
     0
 10
-42.510523458549201
 20
178.83682497677751
 30
0.0
 11
-48.510914707100412
 21
178.87420585494669
 31
0.0
  0
LINE
  5
353
  8
0
 62
     0
 10
-48.510914707100412
 20
178.87420585494669
 30
0.0
 11
-48.462632259643648
 21
186.6245207048556
 31
0.0
  0
LINE
  5
354
  8
0
 62
     0
 10
-48.462632259643648
 20
186.6245207048556
 30
0.0
 11
-58.714761240742959
 21
186.68838880420861
 31
0.0
  0
LINE
  5
355
  8
0
 62
     0
 10
-58.714761240742959
 20
186.68838880420861
 30
0.0
 11
-58.677380362573658
 21
192.68878005275971
 31
0.0
  0
LINE
  5
356
  8
0
 62
     0
 10
-58.677380362573658
 20
192.68878005275971
 30
0.0
 11
-74.928122472728035
 21
192.7900179530595
 31
0.0
  0
LINE
  5
357
  8
0
 62
     0
 10
-74.928122472728035
 20
192.7900179530595
 30
0.0
 11
-74.965503350897336
 21
186.78962670450841
 31
0.0
  0
LINE
  5
358
  8
0
 62
     0
 10
-74.965503350897336
 20
186.78962670450841
 30
0.0
 11
-84.965393380603416
 21
186.85192342074291
 31
0.0
  0
LINE
  5
359
  8
0
 62
     0
 10
-84.965393380603416
 20
186.85192342074291
 30
0.0
 11
-84.928012502434086
 21
192.85231466929409
 31
0.0
  0
LINE
  5
35A
  8
0
 62
     0
 10
-84.928012502434086
 20
192.85231466929409
 30
0.0
 11
-94.929172617494572
 21
192.91461929783031
 31
0.0
  0
LINE
  5
35B
  8
0
 62
     0
 10
-94.929172617494572
 20
192.91461929783031
 30
0.0
 11
-94.966553495663902
 21
186.9142280492791
 31
0.0
  0
LINE
  5
35C
  8
0
 62
     0
 10
-94.966553495663902
 20
186.9142280492791
 30
0.0
 11
-104.9674595936535
 21
186.976531095355
 31
0.0
  0
LINE
  5
35D
  8
0
 62
     0
 10
-104.9674595936535
 20
186.976531095355
 30
0.0
 11
-104.9300787154842
 21
192.97692234390621
 31
0.0
  0
LINE
  5
35E
  8
0
 62
     0
 10
-104.9300787154842
 20
192.97692234390621
 30
0.0
 11
-114.92971472811939
 21
193.0392174776803
 31
0.0
  0
LINE
  5
35F
  8
0
 62
     0
 10
-114.92971472811939
 20
193.0392174776803
 30
0.0
 11
-114.96709560628869
 21
187.03882622912911
 31
0.0
  0
LINE
  5
360
  8
0
 62
     0
 10
-114.96709560628869
 20
187.03882622912911
 30
0.0
 11
-124.9685097384201
 21
187.1011324401257
 31
0.0
  0
LINE
  5
361
  8
0
 62
     0
 10
-124.9685097384201
 20
187.1011324401257
 30
0.0
 11
-124.93112886025069
 21
193.10152368867691
 31
0.0
  0
LINE
  5
362
  8
0
 62
     0
 10
-124.93112886025069
 20
193.10152368867691
 30
0.0
 11
-134.93178094116951
 21
193.16382515229239
 31
0.0
  0
LINE
  5
363
  8
0
 62
     0
 10
-134.93178094116951
 20
193.16382515229239
 30
0.0
 11
-134.96916181933881
 21
187.16343390374121
 31
0.0
  0
LINE
  5
364
  8
0
 62
     0
 10
-134.96916181933881
 20
187.16343390374121
 30
0.0
 11
-144.97057595147021
 21
187.22574011473779
 31
0.0
  0
LINE
  5
365
  8
0
 62
     0
 10
-144.97057595147021
 20
187.22574011473779
 30
0.0
 11
-144.93319507330091
 21
193.226131363289
 31
0.0
  0
LINE
  5
366
  8
0
 62
     0
 10
-144.93319507330091
 20
193.226131363289
 30
0.0
 11
-161.18401338857649
 21
193.32736973832689
 31
0.0
  0
LINE
  5
367
  8
0
 62
     0
 10
-161.18401338857649
 20
193.32736973832689
 30
0.0
 11
-161.2213942667459
 21
187.32697848977571
 31
0.0
  0
LINE
  5
368
  8
0
 62
     0
 10
-161.2213942667459
 20
187.32697848977571
 30
0.0
 11
-171.47194834200559
 21
187.3908367778746
 31
0.0
  0
LINE
  5
369
  8
0
 62
     0
 10
-171.47194834200559
 20
187.3908367778746
 30
0.0
 11
-171.5202307894624
 21
179.64052192796561
 31
0.0
  0
LINE
  5
36A
  8
0
 62
     0
 10
-171.5202307894624
 20
179.64052192796561
 30
0.0
 11
-177.52059663630649
 21
179.677902647889
 31
0.0
  0
LINE
  5
36B
  8
0
 62
     0
 10
-177.52059663630649
 20
179.677902647889
 30
0.0
 11
-177.60626312685341
 21
165.9266885152872
 31
0.0
  0
LINE
  5
36C
  8
0
 62
     0
 10
-177.60626312685341
 20
165.9266885152872
 30
0.0
 11
-171.6058972800092
 21
165.88930779536381
 31
0.0
  0
LINE
  5
36D
  8
0
 62
     0
 10
-171.6058972800092
 20
165.88930779536381
 30
0.0
 11
-171.66820190854551
 21
155.88814768030321
 31
0.0
  0
LINE
  5
36E
  8
0
 62
     0
 10
-171.66820190854551
 20
155.88814768030321
 30
0.0
 11
-177.6685677553896
 21
155.92552840022651
 31
0.0
  0
LINE
  5
36F
  8
0
 62
     0
 10
-177.6685677553896
 20
155.92552840022651
 30
0.0
 11
-177.73086130670339
 21
145.92614640466221
 31
0.0
  0
LINE
  5
370
  8
0
 62
     0
 10
-177.73086130670339
 20
145.92614640466221
 30
0.0
 11
-171.7304954598593
 21
145.8887656847389
 31
0.0
  0
LINE
  5
371
  8
0
 62
     0
 10
-171.7304954598593
 20
145.8887656847389
 30
0.0
 11
-171.79280167085591
 21
135.8873515526075
 31
0.0
  0
LINE
  5
372
  8
0
 62
     0
 10
-171.79280167085591
 20
135.8873515526075
 30
0.0
 11
-177.7931675177
 21
135.9247322725308
 31
0.0
  0
LINE
  5
373
  8
0
 62
     0
 10
-177.7931675177
 20
135.9247322725308
 30
0.0
 11
-177.8554721462362
 21
125.9235721574704
 31
0.0
  0
LINE
  5
374
  8
0
 62
     0
 10
-177.8554721462362
 20
125.9235721574704
 30
0.0
 11
-171.85510629939211
 21
125.886191437547
 31
0.0
  0
LINE
  5
375
  8
0
 62
     0
 10
-171.85510629939211
 20
125.886191437547
 30
0.0
 11
-171.91740934546789
 21
115.8852853395574
 31
0.0
  0
LINE
  5
376
  8
0
 62
     0
 10
-171.91740934546789
 20
115.8852853395574
 30
0.0
 11
-177.91777519231209
 21
115.9226660594807
 31
0.0
  0
LINE
  5
377
  8
0
 62
     0
 10
-177.91777519231209
 20
115.9226660594807
 30
0.0
 11
-177.98007032608629
 21
105.9230300468456
 31
0.0
  0
LINE
  5
378
  8
0
 62
     0
 10
-177.98007032608629
 20
105.9230300468456
 30
0.0
 11
-171.97970447924209
 21
105.88564932692231
 31
0.0
  0
LINE
  5
379
  8
0
 62
     0
 10
-171.97970447924209
 20
105.88564932692231
 30
0.0
 11
-172.04200910777831
 21
95.884489211861791
 31
0.0
  0
LINE
  5
37A
  8
0
 62
     0
 10
-172.04200910777831
 20
95.884489211861791
 30
0.0
 11
-178.04237495462249
 21
95.921869931785096
 31
0.0
  0
LINE
  5
37B
  8
0
 62
     0
 10
-178.04237495462249
 20
95.921869931785096
 30
0.0
 11
-178.10467800069841
 21
85.920963833795412
 31
0.0
  0
LINE
  5
37C
  8
0
 62
     0
 10
-178.10467800069841
 20
85.920963833795412
 30
0.0
 11
-172.10431215385421
 21
85.883583113872106
 31
0.0
  0
LINE
  5
37D
  8
0
 62
     0
 10
-172.10431215385421
 20
85.883583113872106
 30
0.0
 11
-172.16660887008871
 21
75.883693084166055
 31
0.0
  0
LINE
  5
37E
  8
0
 62
     0
 10
-172.16660887008871
 20
75.883693084166055
 30
0.0
 11
-178.16697471693291
 21
75.921073804089389
 31
0.0
  0
LINE
  5
37F
  8
0
 62
     0
 10
-178.16697471693291
 20
75.921073804089389
 30
0.0
 11
-178.22927934546911
 21
65.919913689028846
 31
0.0
  0
LINE
  5
380
  8
0
 62
     0
 10
-178.22927934546911
 20
65.919913689028846
 30
0.0
 11
-172.22891349862491
 21
65.88253296910554
 31
0.0
  0
LINE
  5
381
  8
0
 62
     0
 10
-172.22891349862491
 20
65.88253296910554
 30
0.0
 11
-172.2912165447008
 21
55.881626871115913
 31
0.0
  0
LINE
  5
382
  8
0
 62
     0
 10
-172.2912165447008
 20
55.881626871115913
 30
0.0
 11
-178.29158239154501
 21
55.919007591039211
 31
0.0
  0
LINE
  5
383
  8
0
 62
     0
 10
-178.29158239154501
 20
55.919007591039211
 30
0.0
 11
-178.35387910777951
 21
45.91911756133311
 31
0.0
  0
LINE
  5
384
  8
0
 62
     0
 10
-178.35387910777951
 20
45.91911756133311
 30
0.0
 11
-172.35351326093539
 21
45.881736841409797
 31
0.0
  0
LINE
  5
385
  8
0
 62
     0
 10
-172.35351326093539
 20
45.881736841409797
 30
0.0
 11
-172.41581788947161
 21
35.880576726349318
 31
0.0
  0
LINE
  5
386
  8
0
 62
     0
 10
-172.41581788947161
 20
35.880576726349318
 30
0.0
 11
-178.4161837363157
 21
35.917957446272617
 31
0.0
  0
LINE
  5
387
  8
0
 62
     0
 10
-178.4161837363157
 20
35.917957446272617
 30
0.0
 11
-178.5018483279101
 21
22.167048134155831
 31
0.0
  0
LINE
  5
388
  8
0
 62
     0
 10
-178.5018483279101
 20
22.167048134155831
 30
0.0
 11
-172.50148248106601
 21
22.129667414232561
 31
0.0
  0
LINE
  5
389
  8
0
 62
     0
 10
-172.50148248106601
 20
22.129667414232561
 30
0.0
 11
-172.54976698572119
 21
14.37902234213157
 31
0.0
  0
LINE
  5
38A
  8
0
 62
     0
 10
-172.54976698572119
 20
14.37902234213157
 30
0.0
 11
-162.29921291046139
 21
14.315164054032779
 31
0.0
  0
LINE
  5
38B
  8
0
 62
     0
 10
-162.29921291046139
 20
14.315164054032779
 30
0.0
 11
-162.3365936303847
 21
8.3147982071886304
 31
0.0
  0
LINE
  5
38C
  8
0
 62
     0
 10
-162.3365936303847
 20
8.3147982071886304
 30
0.0
 11
-146.08577531510909
 21
8.2135598321506791
 31
0.0
  0
LINE
  5
38D
  8
0
 62
     0
 10
-146.08577531510909
 20
8.2135598321506791
 30
0.0
 11
-146.04839459518581
 21
14.213925678994849
 31
0.0
  0
LINE
  5
38E
  8
0
 62
     0
 10
-146.04839459518581
 20
14.213925678994849
 30
0.0
 11
-136.04698046305441
 21
14.1516194679983
 31
0.0
  0
LINE
  5
38F
  8
0
 62
     0
 10
-136.04698046305441
 20
14.1516194679983
 30
0.0
 11
-136.08436118297769
 21
8.1512536211541242
 31
0.0
  0
LINE
  5
390
  8
0
 62
     0
 10
-136.08436118297769
 20
8.1512536211541242
 30
0.0
 11
-126.0837091020589
 21
8.0889521575385857
 31
0.0
  0
LINE
  5
391
  8
0
 62
     0
 10
-126.0837091020589
 20
8.0889521575385857
 30
0.0
 11
-126.0463283821356
 21
14.089318004382759
 31
0.0
  0
LINE
  5
392
  8
0
 62
     0
 10
-126.0463283821356
 20
14.089318004382759
 30
0.0
 11
-116.0449142500042
 21
14.02701179338615
 31
0.0
  0
LINE
  5
393
  8
0
 62
     0
 10
-116.0449142500042
 20
14.02701179338615
 30
0.0
 11
-116.0822949699275
 21
8.0266459465420041
 31
0.0
  0
LINE
  5
394
  8
0
 62
     0
 10
-116.0822949699275
 20
8.0266459465420041
 30
0.0
 11
-106.0826589572924
 21
7.9643508127678331
 31
0.0
  0
LINE
  5
395
  8
0
 62
     0
 10
-106.0826589572924
 20
7.9643508127678331
 30
0.0
 11
-106.0452782373691
 21
13.96471665961201
 31
0.0
  0
LINE
  5
396
  8
0
 62
     0
 10
-106.0452782373691
 20
13.96471665961201
 30
0.0
 11
-96.04437213937949
 21
13.90241361353611
 31
0.0
  0
LINE
  5
397
  8
0
 62
     0
 10
-96.04437213937949
 20
13.90241361353611
 30
0.0
 11
-96.081752859302767
 21
7.9020477666919362
 31
0.0
  0
LINE
  5
398
  8
0
 62
     0
 10
-96.081752859302767
 20
7.9020477666919362
 30
0.0
 11
-86.080592744242281
 21
7.8397431381557388
 31
0.0
  0
LINE
  5
399
  8
0
 62
     0
 10
-86.080592744242281
 20
7.8397431381557388
 30
0.0
 11
-86.04321202431899
 21
13.84010898499991
 31
0.0
  0
LINE
  5
39A
  8
0
 62
     0
 10
-86.04321202431899
 20
13.84010898499991
 30
0.0
 11
-76.043321994612924
 21
13.777812268765359
 31
0.0
  0
LINE
  5
39B
  8
0
 62
     0
 10
-76.043321994612924
 20
13.777812268765359
 30
0.0
 11
-76.080702714536216
 21
7.7774464219211827
 31
0.0
  0
LINE
  5
39C
  8
0
 62
     0
 10
-76.080702714536216
 20
7.7774464219211827
 30
0.0
 11
-59.829960604381853
 21
7.6762085216213896
 31
0.0
  0
LINE
  5
39D
  8
0
 62
     0
 10
-59.829960604381853
 20
7.6762085216213896
 30
0.0
 11
-59.792579884458561
 21
13.676574368465539
 31
0.0
  0
LINE
  5
39E
  8
0
 62
     0
 10
-59.792579884458561
 20
13.676574368465539
 30
0.0
 11
-49.540450903359229
 21
13.61270626911263
 31
0.0
  0
LINE
  5
39F
  8
0
 62
     0
 10
-49.540450903359229
 20
13.61270626911263
 30
0.0
 11
-49.540450903359229
 21
13.61270626911263
 31
0.0
  0
LINE
  5
3F9
  8
0
 62
     0
 10
-161.18401338857649
 20
193.32736973832689
 30
0.0
 11
-144.93319507330091
 21
193.226131363289
 31
0.0
  0
LINE
  5
3FD
  8
0
 62
     0
 10
-134.93178094116951
 20
193.16382515229239
 30
0.0
 11
-124.93112886025069
 21
193.10152368867691
 31
0.0
  0
LINE
  5
401
  8
0
 62
     0
 10
-114.92971472811939
 20
193.0392174776803
 30
0.0
 11
-104.9300787154842
 21
192.97692234390621
 31
0.0
  0
LINE
  5
405
  8
0
 62
     0
 10
-94.929172617494572
 20
192.91461929783031
 30
0.0
 11
-84.928012502434086
 21
192.85231466929409
 31
0.0
  0
LINE
  5
409
  8
0
 62
     0
 10
-74.928122472728035
 20
192.7900179530595
 30
0.0
 11
-58.677380362573658
 21
192.68878005275971
 31
0.0
  0
LINE
  5
40D
  8
0
 62
     0
 10
-171.4091480635515
 20
197.14126922603839
 30
0.0
 11
-161.15955925316109
 21
197.07741695128891
 31
0.0
  0
LINE
  5
411
  8
0
 62
     0
 10
-144.90754705765229
 20
196.97617113868739
 30
0.0
 11
-134.90943514744251
 21
196.9138854996753
 31
0.0
  0
LINE
  5
415
  8
0
 62
     0
 10
-124.9062428958149
 20
196.85156821145631
 30
0.0
 11
-114.908130985605
 21
196.78928257244419
 31
0.0
  0
LINE
  5
419
  8
0
 62
     0
 10
-104.9074789046863
 20
196.72698110882871
 30
0.0
 11
-94.904286653058648
 21
196.66466382060969
 31
0.0
  0
LINE
  5
41D
  8
0
 62
     0
 10
-84.906174742848847
 20
196.6023781815976
 30
0.0
 11
-74.902982491221252
 21
196.54006089337861
 31
0.0
  0
LINE
  5
421
  8
0
 62
     0
 10
-58.653510466421338
 20
196.43883090538051
 30
0.0
 11
-48.401381485321991
 21
196.37496280602761
 31
0.0
  0
LINE
  5
422
  8
0
 62
     0
 10
-48.401381485321991
 20
196.37496280602761
 30
0.0
 11
-48.339076856785759
 21
206.3761229210881
 31
0.0
  0
LINE
  5
423
  8
0
 62
     0
 10
-48.339076856785759
 20
206.3761229210881
 30
0.0
 11
-42.33919364237628
 21
206.33874520783939
 31
0.0
  0
LINE
  5
424
  8
0
 62
     0
 10
-42.33919364237628
 20
206.33874520783939
 30
0.0
 11
-42.276900091062473
 21
216.3381272034037
 31
0.0
  0
LINE
  5
425
  8
0
 62
     0
 10
-42.276900091062473
 20
216.3381272034037
 30
0.0
 11
-48.276783305471923
 21
216.3755049166524
 31
0.0
  0
LINE
  5
426
  8
0
 62
     0
 10
-48.276783305471923
 20
216.3755049166524
 30
0.0
 11
-48.214478676935727
 21
226.376665031713
 31
0.0
  0
LINE
  5
427
  8
0
 62
     0
 10
-48.214478676935727
 20
226.376665031713
 30
0.0
 11
-42.214595462526241
 21
226.3392873184643
 31
0.0
  0
LINE
  5
428
  8
0
 62
     0
 10
-42.214595462526241
 20
226.3392873184643
 30
0.0
 11
-42.152289251529687
 21
236.3407014505957
 31
0.0
  0
LINE
  5
429
  8
0
 62
     0
 10
-42.152289251529687
 20
236.3407014505957
 30
0.0
 11
-48.152172465939138
 21
236.37807916384429
 31
0.0
  0
LINE
  5
42A
  8
0
 62
     0
 10
-48.152172465939138
 20
236.37807916384429
 30
0.0
 11
-48.089878914625316
 21
246.3774611594086
 31
0.0
  0
LINE
  5
42B
  8
0
 62
     0
 10
-48.089878914625316
 20
246.3774611594086
 30
0.0
 11
-58.342007895724649
 21
246.4413292587615
 31
0.0
  0
LINE
  5
42C
  8
0
 62
     0
 10
-58.342007895724649
 20
246.4413292587615
 30
0.0
 11
-58.379388773893972
 21
240.4409380102102
 31
0.0
  0
LINE
  5
42D
  8
0
 62
     0
 10
-58.379388773893972
 20
240.4409380102102
 30
0.0
 11
-74.628860798693893
 21
240.54216799820841
 31
0.0
  0
LINE
  5
42E
  8
0
 62
     0
 10
-74.628860798693893
 20
240.54216799820841
 30
0.0
 11
-74.591479920524563
 21
246.54255924675959
 31
0.0
  0
LINE
  5
42F
  8
0
 62
     0
 10
-74.591479920524563
 20
246.54255924675959
 30
0.0
 11
-84.594672172152158
 21
246.60487653497859
 31
0.0
  0
LINE
  5
430
  8
0
 62
     0
 10
-84.594672172152158
 20
246.60487653497859
 30
0.0
 11
-84.632053050321488
 21
240.60448528642729
 31
0.0
  0
LINE
  5
431
  8
0
 62
     0
 10
-84.632053050321488
 20
240.60448528642729
 30
0.0
 11
-94.630164960531275
 21
240.66677092543941
 31
0.0
  0
LINE
  5
432
  8
0
 62
     0
 10
-94.630164960531275
 20
240.66677092543941
 30
0.0
 11
-94.592784082361959
 21
246.66716217399059
 31
0.0
  0
LINE
  5
433
  8
0
 62
     0
 10
-94.592784082361959
 20
246.66716217399059
 30
0.0
 11
-104.5959763339896
 21
246.72947946220961
 31
0.0
  0
LINE
  5
434
  8
0
 62
     0
 10
-104.5959763339896
 20
246.72947946220961
 30
0.0
 11
-104.633357212159
 21
240.7290882136584
 31
0.0
  0
LINE
  5
435
  8
0
 62
     0
 10
-104.633357212159
 20
240.7290882136584
 30
0.0
 11
-114.6340092930777
 21
240.791389677274
 31
0.0
  0
LINE
  5
436
  8
0
 62
     0
 10
-114.6340092930777
 20
240.791389677274
 30
0.0
 11
-114.5966284149083
 21
246.79178092582521
 31
0.0
  0
LINE
  5
437
  8
0
 62
     0
 10
-114.5966284149083
 20
246.79178092582521
 30
0.0
 11
-124.5947403251182
 21
246.8540665648373
 31
0.0
  0
LINE
  5
438
  8
0
 62
     0
 10
-124.5947403251182
 20
246.8540665648373
 30
0.0
 11
-124.6321212032875
 21
240.85367531628609
 31
0.0
  0
LINE
  5
439
  8
0
 62
     0
 10
-124.6321212032875
 20
240.85367531628609
 30
0.0
 11
-134.63531345491509
 21
240.91599260450499
 31
0.0
  0
LINE
  5
43A
  8
0
 62
     0
 10
-134.63531345491509
 20
240.91599260450499
 30
0.0
 11
-134.59793257674579
 21
246.91638385305629
 31
0.0
  0
LINE
  5
43B
  8
0
 62
     0
 10
-134.59793257674579
 20
246.91638385305629
 30
0.0
 11
-144.59604448695569
 21
246.97866949206841
 31
0.0
  0
LINE
  5
43C
  8
0
 62
     0
 10
-144.59604448695569
 20
246.97866949206841
 30
0.0
 11
-144.63342536512499
 21
240.9782782435172
 31
0.0
  0
LINE
  5
43D
  8
0
 62
     0
 10
-144.63342536512499
 20
240.9782782435172
 30
0.0
 11
-160.88543756063379
 21
241.07952405611869
 31
0.0
  0
LINE
  5
43E
  8
0
 62
     0
 10
-160.88543756063379
 20
241.07952405611869
 30
0.0
 11
-160.84805668246449
 21
247.0799153046699
 31
0.0
  0
LINE
  5
43F
  8
0
 62
     0
 10
-160.84805668246449
 20
247.0799153046699
 30
0.0
 11
-171.09764549285489
 21
247.1437675794194
 31
0.0
  0
LINE
  5
440
  8
0
 62
     0
 10
-171.09764549285489
 20
247.1437675794194
 30
0.0
 11
-171.15993904416871
 21
237.14438558385521
 31
0.0
  0
LINE
  5
441
  8
0
 62
     0
 10
-171.15993904416871
 20
237.14438558385521
 30
0.0
 11
-177.1623624292871
 21
237.18177912170719
 31
0.0
  0
LINE
  5
443
  8
0
 62
     0
 10
-177.2246686402836
 20
227.18036498957579
 30
0.0
 11
-171.22224525516529
 21
227.14297145172381
 31
0.0
  0
LINE
  5
444
  8
0
 62
     0
 10
-171.22224525516529
 20
227.14297145172381
 30
0.0
 11
-171.28454988370149
 21
217.14181133666321
 31
0.0
  0
LINE
  5
445
  8
0
 62
     0
 10
-171.28454988370149
 20
217.14181133666321
 30
0.0
 11
-177.28697326881991
 21
217.17920487451531
 31
0.0
  0
LINE
  5
447
  8
0
 62
     0
 10
-177.34926682013369
 20
207.17982287895089
 30
0.0
 11
-171.3468434350153
 21
207.14242934109879
 31
0.0
  0
LINE
  5
448
  8
0
 62
     0
 10
-171.3468434350153
 20
207.14242934109879
 30
0.0
 11
-171.4091480635515
 21
197.14126922603839
 31
0.0
  0
LINE
  5
449
  8
0
 62
     0
 10
-171.4091480635515
 20
197.14126922603839
 30
0.0
 11
-171.4091480635515
 21
197.14126922603839
 31
0.0
  0
LINE
  5
44A
  8
0
 62
     0
 10
-171.09764549285489
 20
247.1437675794194
 30
0.0
 11
-160.84805668246449
 21
247.0799153046699
 31
0.0
  0
LINE
  5
44E
  8
0
 62
     0
 10
-144.59604448695569
 20
246.97866949206841
 30
0.0
 11
-134.59793257674579
 21
246.91638385305629
 31
0.0
  0
LINE
  5
452
  8
0
 62
     0
 10
-124.5947403251182
 20
246.8540665648373
 30
0.0
 11
-114.5966284149083
 21
246.79178092582521
 31
0.0
  0
LINE
  5
456
  8
0
 62
     0
 10
-104.5959763339896
 20
246.72947946220961
 30
0.0
 11
-94.592784082361959
 21
246.66716217399059
 31
0.0
  0
LINE
  5
45A
  8
0
 62
     0
 10
-84.594672172152158
 20
246.60487653497859
 30
0.0
 11
-74.591479920524563
 21
246.54255924675959
 31
0.0
  0
LINE
  5
45E
  8
0
 62
     0
 10
-58.342007895724649
 20
246.4413292587615
 30
0.0
 11
-48.089878914625316
 21
246.3774611594086
 31
0.0
  0
LINE
  5
45F
  8
0
 62
     0
 10
-48.089878914625316
 20
246.3774611594086
 30
0.0
 11
-48.027574286089077
 21
256.37862127446908
 31
0.0
  0
LINE
  5
460
  8
0
 62
     0
 10
-48.027574286089077
 20
256.37862127446908
 30
0.0
 11
-42.027691071679619
 21
256.34124356122049
 31
0.0
  0
LINE
  5
461
  8
0
 62
     0
 10
-42.027691071679619
 20
256.34124356122049
 30
0.0
 11
-41.965386443143387
 21
266.34240367628109
 31
0.0
  0
LINE
  5
462
  8
0
 62
     0
 10
-41.965386443143387
 20
266.34240367628109
 30
0.0
 11
-47.965269657552859
 21
266.37978138952963
 31
0.0
  0
LINE
  5
463
  8
0
 62
     0
 10
-47.965269657552859
 20
266.37978138952963
 30
0.0
 11
-47.902966611476977
 21
276.3806874875192
 31
0.0
  0
LINE
  5
464
  8
0
 62
     0
 10
-47.902966611476977
 20
276.3806874875192
 30
0.0
 11
-41.903083397067498
 21
276.34330977427072
 31
0.0
  0
LINE
  5
465
  8
0
 62
     0
 10
-41.903083397067498
 20
276.34330977427072
 30
0.0
 11
-41.840786680833013
 21
286.3431998039768
 31
0.0
  0
LINE
  5
466
  8
0
 62
     0
 10
-41.840786680833013
 20
286.3431998039768
 30
0.0
 11
-47.84066989524247
 21
286.38057751722528
 31
0.0
  0
LINE
  5
467
  8
0
 62
     0
 10
-47.84066989524247
 20
286.38057751722528
 30
0.0
 11
-47.778365266706231
 21
296.38173763228588
 31
0.0
  0
LINE
  5
468
  8
0
 62
     0
 10
-47.778365266706231
 20
296.38173763228588
 30
0.0
 11
-58.030494247805571
 21
296.44560573163881
 31
0.0
  0
LINE
  5
469
  8
0
 62
     0
 10
-58.030494247805571
 20
296.44560573163881
 30
0.0
 11
-58.067875125974908
 21
290.44521448308763
 31
0.0
  0
LINE
  5
46A
  8
0
 62
     0
 10
-58.067875125974908
 20
290.44521448308763
 30
0.0
 11
-74.317347150774822
 21
290.54644447108569
 31
0.0
  0
LINE
  5
46B
  8
0
 62
     0
 10
-74.317347150774822
 20
290.54644447108569
 30
0.0
 11
-74.279966272605492
 21
296.54683571963687
 31
0.0
  0
LINE
  5
46C
  8
0
 62
     0
 10
-74.279966272605492
 20
296.54683571963687
 30
0.0
 11
-84.283158524233102
 21
296.60915300785592
 31
0.0
  0
LINE
  5
46D
  8
0
 62
     0
 10
-84.283158524233102
 20
296.60915300785592
 30
0.0
 11
-84.320539402402417
 21
290.60876175930468
 31
0.0
  0
LINE
  5
46E
  8
0
 62
     0
 10
-84.320539402402417
 20
290.60876175930468
 30
0.0
 11
-94.318651312612246
 21
290.67104739831677
 31
0.0
  0
LINE
  5
46F
  8
0
 62
     0
 10
-94.318651312612246
 20
290.67104739831677
 30
0.0
 11
-94.281270434442916
 21
296.67143864686801
 31
0.0
  0
LINE
  5
470
  8
0
 62
     0
 10
-94.281270434442916
 20
296.67143864686801
 30
0.0
 11
-104.2844626860706
 21
296.733755935087
 31
0.0
  0
LINE
  5
471
  8
0
 62
     0
 10
-104.2844626860706
 20
296.733755935087
 30
0.0
 11
-104.3218435642399
 21
290.73336468653571
 31
0.0
  0
LINE
  5
472
  8
0
 62
     0
 10
-104.3218435642399
 20
290.73336468653571
 30
0.0
 11
-114.3224956451586
 21
290.79566615015131
 31
0.0
  0
LINE
  5
473
  8
0
 62
     0
 10
-114.3224956451586
 20
290.79566615015131
 30
0.0
 11
-114.2851147669893
 21
296.79605739870249
 31
0.0
  0
LINE
  5
474
  8
0
 62
     0
 10
-114.2851147669893
 20
296.79605739870249
 30
0.0
 11
-124.2832266771991
 21
296.85834303771458
 31
0.0
  0
LINE
  5
475
  8
0
 62
     0
 10
-124.2832266771991
 20
296.85834303771458
 30
0.0
 11
-124.3206075553684
 21
290.85795178916339
 31
0.0
  0
LINE
  5
476
  8
0
 62
     0
 10
-124.3206075553684
 20
290.85795178916339
 30
0.0
 11
-134.32379980699611
 21
290.92026907738239
 31
0.0
  0
LINE
  5
477
  8
0
 62
     0
 10
-134.32379980699611
 20
290.92026907738239
 30
0.0
 11
-134.28641892882681
 21
296.92066032593351
 31
0.0
  0
LINE
  5
478
  8
0
 62
     0
 10
-134.28641892882681
 20
296.92066032593351
 30
0.0
 11
-144.28453083903659
 21
296.9829459649456
 31
0.0
  0
LINE
  5
479
  8
0
 62
     0
 10
-144.28453083903659
 20
296.9829459649456
 30
0.0
 11
-144.32191171720589
 21
290.98255471639447
 31
0.0
  0
LINE
  5
47A
  8
0
 62
     0
 10
-144.32191171720589
 20
290.98255471639447
 30
0.0
 11
-160.57392391271469
 21
291.08380052899599
 31
0.0
  0
LINE
  5
47B
  8
0
 62
     0
 10
-160.57392391271469
 20
291.08380052899599
 30
0.0
 11
-160.53654303454539
 21
297.08419177754718
 31
0.0
  0
LINE
  5
47C
  8
0
 62
     0
 10
-160.53654303454539
 20
297.08419177754718
 30
0.0
 11
-170.7861318449358
 21
297.14804405229671
 31
0.0
  0
LINE
  5
47D
  8
0
 62
     0
 10
-170.7861318449358
 20
297.14804405229671
 30
0.0
 11
-170.84843647347199
 21
287.14688393723611
 31
0.0
  0
LINE
  5
47E
  8
0
 62
     0
 10
-170.84843647347199
 20
287.14688393723611
 30
0.0
 11
-176.85085985859041
 21
287.18427747508821
 31
0.0
  0
LINE
  5
480
  8
0
 62
     0
 10
-176.91315657482491
 20
277.18438744538219
 30
0.0
 11
-170.91073318970649
 21
277.1469939075302
 31
0.0
  0
LINE
  5
481
  8
0
 62
     0
 10
-170.91073318970649
 20
277.1469939075302
 30
0.0
 11
-170.9730362357825
 21
267.1460878095404
 31
0.0
  0
LINE
  5
482
  8
0
 62
     0
 10
-170.9730362357825
 20
267.1460878095404
 30
0.0
 11
-176.97545962090081
 21
267.18348134739261
 31
0.0
  0
LINE
  5
484
  8
0
 62
     0
 10
-177.037764249437
 20
257.1823212323319
 30
0.0
 11
-171.03534086431861
 21
257.1449276944798
 31
0.0
  0
LINE
  5
485
  8
0
 62
     0
 10
-171.03534086431861
 20
257.1449276944798
 30
0.0
 11
-171.09764549285489
 21
247.1437675794194
 31
0.0
  0
LINE
  5
486
  8
0
 62
     0
 10
-171.09764549285489
 20
247.1437675794194
 30
0.0
 11
-171.09764549285489
 21
247.1437675794194
 31
0.0
  0
LINE
  5
4A6
  8
0
  6
CONTINUOUS
 10
6.4250579786497042
 20
7.263456973402497
 30
0.0
 11
8.7302121324246968
 21
377.28758396739579
 31
0.0
  0
LINE
  5
4A7
  8
0
  6
CONTINUOUS
 10
-171.09764549285489
 20
247.1437675794194
 30
0.0
 11
-58.342007895724649
 21
246.4413292587615
 31
0.0
  0
LINE
  5
4A8
  8
0
  6
CONTINUOUS
 10
-171.4091480635515
 20
197.14126922603839
 30
0.0
 11
-48.401381485321991
 21
196.37496280602761
 31
0.0
  0
LINE
  5
4A9
  8
0
  6
CONTINUOUS
 10
-177.34926682013369
 20
207.17982287895089
 30
0.0
 11
-177.28697326881991
 21
217.17920487451531
 31
0.0
  0
LINE
  5
4AA
  8
0
  6
CONTINUOUS
 10
-177.2246686402836
 20
227.18036498957579
 30
0.0
 11
-177.1623624292871
 21
237.18177912170719
 31
0.0
  0
LINE
  5
4AB
  8
0
  6
CONTINUOUS
 10
-177.037764249437
 20
257.1823212323319
 30
0.0
 11
-176.97545962090081
 21
267.18348134739261
 31
0.0
  0
LINE
  5
4AC
  8
0
  6
CONTINUOUS
 10
-176.91315657482491
 20
277.18438744538219
 30
0.0
 11
-176.85085985859041
 21
287.18427747508821
 31
0.0
  0
ENDSEC
  0
EOF
