<svg xmlns="http://www.w3.org/2000/svg" version="1.1" width="505mm" height="185mm" viewBox = " 0 0 1789.37155 655.51235" >
<!-- Front--> 
<g transform="translate(0, 0) " > 
<polygon style="stroke:#000000; fill:none; stroke-width:0.90000074" points="0, 0 48.7205125, 0 48.7205125, 21.25986 97.441025, 21.25986 97.441025, 0 132.874125, 0 132.874125, 21.25986 168.307225, 21.25986 168.307225, 0 203.74032499999998, 0 203.74032499999998, 21.25986 239.17342499999998, 21.25986 239.17342499999998, 0 274.606525, 0 274.606525, 21.25986 310.039625, 21.25986 310.039625, 0 345.47272499999997, 0 345.47272499999997, 21.25986 380.90582499999994, 21.25986 380.90582499999994, 0 416.3389249999999, 0 416.3389249999999, 21.25986 451.772025, 21.25986 451.772025, 0 487.20512499999995, 0 487.20512499999995, 21.25986 522.6382249999999, 21.25986 522.6382249999999, 0 558.0713249999999, 0 558.0713249999999, 21.25986 606.7918374999999, 21.25986 606.7918374999999, 0 655.51235, 0 655.51235, 35.433099999999996 634.25249, 35.433099999999996 634.25249, 70.86619999999999 655.51235, 70.86619999999999 655.51235, 106.29929999999999 634.25249, 106.29929999999999 634.25249, 141.73239999999998 655.51235, 141.73239999999998 655.51235, 177.1655 606.7918374999999, 177.1655 606.7918374999999, 155.90564 558.0713249999999, 155.90564 558.0713249999999, 177.1655 522.6382249999999, 177.1655 522.6382249999999, 155.90564 487.20512499999995, 155.90564 487.20512499999995, 177.1655 451.772025, 177.1655 451.772025, 155.90564 416.3389249999999, 155.90564 416.3389249999999, 177.1655 380.90582499999994, 177.1655 380.90582499999994, 155.90564 345.47272499999997, 155.90564 345.47272499999997, 177.1655 310.039625, 177.1655 310.039625, 155.90564 274.606525, 155.90564 274.606525, 177.1655 239.17342499999998, 177.1655 239.17342499999998, 155.90564 203.74032499999998, 155.90564 203.74032499999998, 177.1655 168.307225, 177.1655 168.307225, 155.90564 132.874125, 155.90564 132.874125, 177.1655 97.441025, 177.1655 97.441025, 155.90564 48.7205125, 155.90564 48.7205125, 177.1655 0, 177.16549999999998 0, 141.73239999999998 21.25986, 141.73239999999998 21.25986, 106.29929999999999 0, 106.29929999999999 0, 70.86619999999999 21.25986, 70.86619999999999 21.25986, 35.433099999999996 0, 35.433099999999996 "/> 
</g>
<!-- Back--> 
<g transform="translate(655.51235, 0) " > 
<polygon style="stroke:#000000; fill:none; stroke-width:0.90000074" points="0, 0 48.7205125, 0 48.7205125, 21.25986 97.441025, 21.25986 97.441025, 0 132.874125, 0 132.874125, 21.25986 168.307225, 21.25986 168.307225, 0 203.74032499999998, 0 203.74032499999998, 21.25986 239.17342499999998, 21.25986 239.17342499999998, 0 274.606525, 0 274.606525, 21.25986 310.039625, 21.25986 310.039625, 0 345.47272499999997, 0 345.47272499999997, 21.25986 380.90582499999994, 21.25986 380.90582499999994, 0 416.3389249999999, 0 416.3389249999999, 21.25986 451.772025, 21.25986 451.772025, 0 487.20512499999995, 0 487.20512499999995, 21.25986 522.6382249999999, 21.25986 522.6382249999999, 0 558.0713249999999, 0 558.0713249999999, 21.25986 606.7918374999999, 21.25986 606.7918374999999, 0 655.51235, 0 655.51235, 35.433099999999996 634.25249, 35.433099999999996 634.25249, 70.86619999999999 655.51235, 70.86619999999999 655.51235, 106.29929999999999 634.25249, 106.29929999999999 634.25249, 141.73239999999998 655.51235, 141.73239999999998 655.51235, 177.1655 606.7918374999999, 177.1655 606.7918374999999, 155.90564 558.0713249999999, 155.90564 558.0713249999999, 177.1655 522.6382249999999, 177.1655 522.6382249999999, 155.90564 487.20512499999995, 155.90564 487.20512499999995, 177.1655 451.772025, 177.1655 451.772025, 155.90564 416.3389249999999, 155.90564 416.3389249999999, 177.1655 380.90582499999994, 177.1655 380.90582499999994, 155.90564 345.47272499999997, 155.90564 345.47272499999997, 177.1655 310.039625, 177.1655 310.039625, 155.90564 274.606525, 155.90564 274.606525, 177.1655 239.17342499999998, 177.1655 239.17342499999998, 155.90564 203.74032499999998, 155.90564 203.74032499999998, 177.1655 168.307225, 177.1655 168.307225, 155.90564 132.874125, 155.90564 132.874125, 177.1655 97.441025, 177.1655 97.441025, 155.90564 48.7205125, 155.90564 48.7205125, 177.1655 0, 177.16549999999998 0, 141.73239999999998 21.25986, 141.73239999999998 21.25986, 106.29929999999999 0, 106.29929999999999 0, 70.86619999999999 21.25986, 70.86619999999999 21.25986, 35.433099999999996 0, 35.433099999999996 "/> 
</g>
<!-- Left--> 
<g transform="translate(1311.0247, 0) " > 
<polygon style="stroke:#000000; fill:none; stroke-width:0.90000074" points="21.25986, 0 57.5787875, 0 57.5787875, 21.25986 115.157575, 21.25986 115.157575, 0 150.59067499999998, 0 150.59067499999998, 21.25986 186.023775, 21.25986 186.023775, 0 221.45687499999997, 0 221.45687499999997, 21.25986 256.889975, 21.25986 256.889975, 0 292.32307499999996, 0 292.32307499999996, 21.25986 327.756175, 21.25986 327.756175, 0 363.18927499999995, 0 363.18927499999995, 21.25986 420.7680624999999, 21.25986 420.7680624999999, 0 457.08699, 0 457.08699, 35.433099999999996 478.34685, 35.433099999999996 478.34685, 70.86619999999999 457.08699, 70.86619999999999 457.08699, 106.29929999999999 478.34685, 106.29929999999999 478.34685, 141.73239999999998 457.08699, 141.73239999999998 457.08698999999996, 177.1655 420.7680624999999, 177.1655 420.7680624999999, 155.90564 363.18927499999995, 155.90564 363.18927499999995, 177.1655 327.756175, 177.1655 327.756175, 155.90564 292.32307499999996, 155.90564 292.32307499999996, 177.1655 256.889975, 177.1655 256.889975, 155.90564 221.45687499999997, 155.90564 221.45687499999997, 177.1655 186.023775, 177.1655 186.023775, 155.90564 150.59067499999998, 155.90564 150.59067499999998, 177.1655 115.157575, 177.1655 115.157575, 155.90564 57.5787875, 155.90564 57.5787875, 177.1655 21.25986, 177.16549999999998 21.25986, 141.73239999999998 0, 141.73239999999998 0, 106.29929999999999 21.25986, 106.29929999999999 21.25986, 70.86619999999999 0, 70.86619999999999 0, 35.433099999999996 21.25986, 35.433099999999996 "/> 
</g>
<!-- Right--> 
<g transform="translate(1311.0247, 177.1655) " > 
<polygon style="stroke:#000000; fill:none; stroke-width:0.90000074" points="21.25986, 0 57.5787875, 0 57.5787875, 21.25986 115.157575, 21.25986 115.157575, 0 150.59067499999998, 0 150.59067499999998, 21.25986 186.023775, 21.25986 186.023775, 0 221.45687499999997, 0 221.45687499999997, 21.25986 256.889975, 21.25986 256.889975, 0 292.32307499999996, 0 292.32307499999996, 21.25986 327.756175, 21.25986 327.756175, 0 363.18927499999995, 0 363.18927499999995, 21.25986 420.7680624999999, 21.25986 420.7680624999999, 0 457.08699, 0 457.08699, 35.433099999999996 478.34685, 35.433099999999996 478.34685, 70.86619999999999 457.08699, 70.86619999999999 457.08699, 106.29929999999999 478.34685, 106.29929999999999 478.34685, 141.73239999999998 457.08699, 141.73239999999998 457.08698999999996, 177.1655 420.7680624999999, 177.1655 420.7680624999999, 155.90564 363.18927499999995, 155.90564 363.18927499999995, 177.1655 327.756175, 177.1655 327.756175, 155.90564 292.32307499999996, 155.90564 292.32307499999996, 177.1655 256.889975, 177.1655 256.889975, 155.90564 221.45687499999997, 155.90564 221.45687499999997, 177.1655 186.023775, 177.1655 186.023775, 155.90564 150.59067499999998, 155.90564 150.59067499999998, 177.1655 115.157575, 177.1655 115.157575, 155.90564 57.5787875, 155.90564 57.5787875, 177.1655 21.25986, 177.16549999999998 21.25986, 141.73239999999998 0, 141.73239999999998 0, 106.29929999999999 21.25986, 106.29929999999999 21.25986, 70.86619999999999 0, 70.86619999999999 0, 35.433099999999996 21.25986, 35.433099999999996 "/> 
</g>
<!-- Top--> 
<g transform="translate(0, 177.1655) " > 
<polygon style="stroke:#000000; fill:none; stroke-width:0.90000074" points="21.25986, 21.25986 48.7205125, 21.25986 48.7205125, 0 97.441025, 0 97.441025, 21.25986 132.874125, 21.25986 132.874125, 0 168.307225, 0 168.307225, 21.25986 203.74032499999998, 21.25986 203.74032499999998, 0 239.17342499999998, 0 239.17342499999998, 21.25986 274.606525, 21.25986 274.606525, 0 310.039625, 0 310.039625, 21.25986 345.47272499999997, 21.25986 345.47272499999997, 0 380.90582499999994, 0 380.90582499999994, 21.25986 416.3389249999999, 21.25986 416.3389249999999, 0 451.772025, 0 451.772025, 21.25986 487.20512499999995, 21.25986 487.20512499999995, 0 522.6382249999999, 0 522.6382249999999, 21.25986 558.0713249999999, 21.25986 558.0713249999999, 0 606.7918374999999, 0 606.7918374999999, 21.25986 634.25249, 21.25986 634.25249, 57.5787875 655.51235, 57.5787875 655.51235, 115.157575 634.25249, 115.157575 634.25249, 150.59067499999998 655.51235, 150.59067499999998 655.51235, 186.023775 634.25249, 186.023775 634.25249, 221.45687499999997 655.51235, 221.45687499999997 655.51235, 256.889975 634.25249, 256.889975 634.25249, 292.32307499999996 655.51235, 292.32307499999996 655.51235, 327.756175 634.25249, 327.756175 634.25249, 363.18927499999995 655.51235, 363.18927499999995 655.51235, 420.7680624999999 634.25249, 420.7680624999999 634.25249, 457.08699 606.7918374999999, 457.08699 606.7918374999999, 478.34685 558.0713249999999, 478.34685 558.0713249999999, 457.08699 522.6382249999999, 457.08699 522.6382249999999, 478.34685 487.20512499999995, 478.34685 487.20512499999995, 457.08699 451.772025, 457.08699 451.772025, 478.34685 416.3389249999999, 478.34685 416.3389249999999, 457.08699 380.90582499999994, 457.08699 380.90582499999994, 478.34685 345.47272499999997, 478.34685 345.47272499999997, 457.08699 310.039625, 457.08699 310.039625, 478.34685 274.606525, 478.34685 274.606525, 457.08699 239.17342499999998, 457.08699 239.17342499999998, 478.34685 203.74032499999998, 478.34685 203.74032499999998, 457.08699 168.307225, 457.08699 168.307225, 478.34685 132.874125, 478.34685 132.874125, 457.08699 97.441025, 457.08699 97.441025, 478.34685 48.7205125, 478.34685 48.7205125, 457.08699 21.25986, 457.08698999999996 21.25986, 420.7680624999999 0, 420.7680624999999 0, 363.18927499999995 21.25986, 363.18927499999995 21.25986, 327.756175 0, 327.756175 0, 292.32307499999996 21.25986, 292.32307499999996 21.25986, 256.889975 0, 256.889975 0, 221.45687499999997 21.25986, 221.45687499999997 21.25986, 186.023775 0, 186.023775 0, 150.59067499999998 21.25986, 150.59067499999998 21.25986, 115.157575 0, 115.157575 0, 57.5787875 21.25986, 57.5787875 "/> 
</g>
<!-- Bottom--> 
<g transform="translate(655.51235, 177.1655) " > 
<polygon style="stroke:#000000; fill:none; stroke-width:0.90000074" points="21.25986, 21.25986 48.7205125, 21.25986 48.7205125, 0 97.441025, 0 97.441025, 21.25986 132.874125, 21.25986 132.874125, 0 168.307225, 0 168.307225, 21.25986 203.74032499999998, 21.25986 203.74032499999998, 0 239.17342499999998, 0 239.17342499999998, 21.25986 274.606525, 21.25986 274.606525, 0 310.039625, 0 310.039625, 21.25986 345.47272499999997, 21.25986 345.47272499999997, 0 380.90582499999994, 0 380.90582499999994, 21.25986 416.3389249999999, 21.25986 416.3389249999999, 0 451.772025, 0 451.772025, 21.25986 487.20512499999995, 21.25986 487.20512499999995, 0 522.6382249999999, 0 522.6382249999999, 21.25986 558.0713249999999, 21.25986 558.0713249999999, 0 606.7918374999999, 0 606.7918374999999, 21.25986 634.25249, 21.25986 634.25249, 57.5787875 655.51235, 57.5787875 655.51235, 115.157575 634.25249, 115.157575 634.25249, 150.59067499999998 655.51235, 150.59067499999998 655.51235, 186.023775 634.25249, 186.023775 634.25249, 221.45687499999997 655.51235, 221.45687499999997 655.51235, 256.889975 634.25249, 256.889975 634.25249, 292.32307499999996 655.51235, 292.32307499999996 655.51235, 327.756175 634.25249, 327.756175 634.25249, 363.18927499999995 655.51235, 363.18927499999995 655.51235, 420.7680624999999 634.25249, 420.7680624999999 634.25249, 457.08699 606.7918374999999, 457.08699 606.7918374999999, 478.34685 558.0713249999999, 478.34685 558.0713249999999, 457.08699 522.6382249999999, 457.08699 522.6382249999999, 478.34685 487.20512499999995, 478.34685 487.20512499999995, 457.08699 451.772025, 457.08699 451.772025, 478.34685 416.3389249999999, 478.34685 416.3389249999999, 457.08699 380.90582499999994, 457.08699 380.90582499999994, 478.34685 345.47272499999997, 478.34685 345.47272499999997, 457.08699 310.039625, 457.08699 310.039625, 478.34685 274.606525, 478.34685 274.606525, 457.08699 239.17342499999998, 457.08699 239.17342499999998, 478.34685 203.74032499999998, 478.34685 203.74032499999998, 457.08699 168.307225, 457.08699 168.307225, 478.34685 132.874125, 478.34685 132.874125, 457.08699 97.441025, 457.08699 97.441025, 478.34685 48.7205125, 478.34685 48.7205125, 457.08699 21.25986, 457.08698999999996 21.25986, 420.7680624999999 0, 420.7680624999999 0, 363.18927499999995 21.25986, 363.18927499999995 21.25986, 327.756175 0, 327.756175 0, 292.32307499999996 21.25986, 292.32307499999996 21.25986, 256.889975 0, 256.889975 0, 221.45687499999997 21.25986, 221.45687499999997 21.25986, 186.023775 0, 186.023775 0, 150.59067499999998 21.25986, 150.59067499999998 21.25986, 115.157575 0, 115.157575 0, 57.5787875 21.25986, 57.5787875 "/> 
</g></svg>